<?xml version="1.0" standalone="no"?><!DOCTYPE svg PUBLIC "-//W3C//DTD SVG 1.1//EN" "http://www.w3.org/Graphics/SVG/1.1/DTD/svg11.dtd"><svg t="1680783260096" class="icon" viewBox="0 0 1024 1024" version="1.1" xmlns="http://www.w3.org/2000/svg" p-id="6226" width="32" height="32" xmlns:xlink="http://www.w3.org/1999/xlink"><path d="M92.362549 92.362549m270.065935 0l299.13178 0q270.065934 0 270.065934 270.065935l0 299.13178q0 270.065934-270.065934 270.065934l-299.13178 0q-270.065934 0-270.065935-270.065934l0-299.13178q0-270.065934 270.065935-270.065935Z" fill="#FFE9D3" p-id="6227"></path><path d="M382.627165 715.89978l79.241846 21.020132v-27.490461l6.47033-6.47033h45.281055v54.980923h-48.521847l-59.830857-25.881319z" fill="#CDBDB2" p-id="6228"></path><path d="M641.372835 715.89978l-77.62145 21.020132v-27.490461l-6.47033-6.47033H512v54.980923h48.510593l59.84211-25.881319z" fill="#CDBDB2" p-id="6229"></path><path d="M468.339341 656.05767l-6.47033 53.371781 8.079473-6.47033h84.103032l9.699869 6.47033-6.47033-53.371781-12.940659-8.079472-64.680792 1.620395z" fill="#393939" p-id="6230"></path><path d="M424.678681 295.429626l38.810726 90.56211 17.77934 263.606857h63.071649L563.762637 385.991736l35.569934-90.56211z" fill="#F89C35" p-id="6231"></path><path d="M254.874725 494.34444l-45.281055 130.981978 113.202638-6.459077h72.771516v-56.601319l-3.240791-116.432176-16.170198 12.940659z" fill="#F89D35" p-id="6232"></path><path d="M340.575648 508.894242l132.613627 3.240791-14.549802 67.921582-63.071649-16.170197z" fill="#D87C30" p-id="6233"></path><path d="M340.575648 510.514637l54.992176 51.762638v51.740132z" fill="#EA8D3A" p-id="6234"></path><path d="M395.567824 563.875165l64.680791 16.18145 21.031385 69.541978-14.561055 8.079473-71.151121-42.051517z" fill="#F89D35" p-id="6235"></path><path d="M395.567824 615.637802l-12.940659 100.261978 85.712176-59.84211z" fill="#EB8F35" p-id="6236"></path><path d="M473.178022 512.135033l8.101978 137.46356-24.260923-70.352175z" fill="#EA8E3A" p-id="6237"></path><path d="M321.175912 617.246945l74.380659-1.620396-12.929406 100.261978z" fill="#D87C30" p-id="6238"></path><path d="M245.174857 759.56044l137.452308-43.66066-61.451253-98.652835-111.582242 8.090725z" fill="#EB8F35" p-id="6239"></path><path d="M463.489407 385.991736l-69.541978 58.221715-53.371781 64.680791 132.613627 4.861187z" fill="#E8821E" p-id="6240"></path><path d="M382.627165 715.89978l85.712176-59.84211-6.47033 51.762638v29.099604l-58.221714-11.320264-21.020132-9.699868z m258.74567 0l-84.09178-59.84211 6.47033 51.762638v29.099604l58.210461-11.320264 19.410989-9.699868z" fill="#DFCEC3" p-id="6241"></path><path d="M437.619341 541.24589l17.77934 37.19033-63.071648-16.170198z" fill="#393939" p-id="6242"></path><path d="M243.554462 219.428571l219.934945 166.563165-37.201583-90.56211z" fill="#E88F35" p-id="6243"></path><path d="M243.554462 219.428571l-29.110858 88.941715 16.170198 97.032439-11.320264 6.47033 16.170198 14.549802-12.940659 11.320264 17.790593 16.170198-11.320263 9.699868 25.881318 32.351648 121.28211-37.201582c59.301978-47.43033 88.401582-71.68 87.321319-72.771517-1.069011-1.080264-74.380659-56.601319-219.923692-166.563165z" fill="#8E5A30" p-id="6244"></path><path d="M769.125275 494.34444l45.281055 130.981978-113.202638-6.459077h-72.771516v-56.601319l3.240791-116.432176 16.170198 12.940659z" fill="#F89D35" p-id="6245"></path><path d="M683.424352 508.894242l-132.613627 3.240791 14.549802 67.921582 63.071649-16.170197z" fill="#D87C30" p-id="6246"></path><path d="M683.424352 510.514637l-54.992176 51.762638v51.740132z" fill="#EA8D3A" p-id="6247"></path><path d="M628.432176 563.875165L563.762637 580.067868l-21.031384 69.541978 14.561055 8.079473 71.151121-42.051517z" fill="#F89D35" p-id="6248"></path><path d="M628.432176 615.637802l12.940659 100.261978-84.09178-58.221714z" fill="#EB8F35" p-id="6249"></path><path d="M550.821978 512.135033l-8.101978 137.46356 24.260923-70.352175z" fill="#EA8E3A" p-id="6250"></path><path d="M702.824088 617.246945l-74.380659-1.620396 12.929406 100.261978z" fill="#D87C30" p-id="6251"></path><path d="M778.825143 759.56044l-137.452308-43.66066 61.451253-98.652835 111.582242 8.090725z" fill="#EB8F35" p-id="6252"></path><path d="M560.510593 385.991736l69.541978 58.221715 53.371781 64.680791-132.613627 4.861187z" fill="#E8821E" p-id="6253"></path><path d="M586.380659 541.24589l-17.77934 37.19033 63.071648-16.170198z" fill="#393939" p-id="6254"></path><path d="M780.445538 219.428571L560.510593 385.991736l37.201583-90.56211z" fill="#E88F35" p-id="6255"></path><path d="M780.445538 219.428571l29.110858 88.941715-16.170198 97.032439 11.320264 6.47033-16.170198 14.549802 12.940659 11.320264-17.790593 16.170198 11.320263 9.699868-25.881318 32.351648-121.28211-37.201582c-59.301978-47.43033-88.401582-71.68-87.321319-72.771517 1.069011-1.080264 74.380659-56.601319 219.923692-166.563165z" fill="#8E5A30" p-id="6256"></path></svg>