<?xml version="1.0" standalone="no"?><!DOCTYPE svg PUBLIC "-//W3C//DTD SVG 1.1//EN" "http://www.w3.org/Graphics/SVG/1.1/DTD/svg11.dtd"><svg t="1680783247630" class="icon" viewBox="0 0 1024 1024" version="1.1" xmlns="http://www.w3.org/2000/svg" p-id="4182" width="32" height="32" xmlns:xlink="http://www.w3.org/1999/xlink"><path d="M92.362549 92.362549m270.065935 0l299.13178 0q270.065934 0 270.065934 270.065935l0 299.13178q0 270.065934-270.065934 270.065934l-299.13178 0q-270.065934 0-270.065935-270.065934l0-299.13178q0-270.065934 270.065935-270.065935Z" fill="#006FFF" p-id="4183"></path><path d="M317.620044 388.602374c107.351209-105.539516 281.408703-105.539516 388.759912 0l12.918154 12.704351a13.345758 13.345758 0 0 1 0 19.107165l-44.200791 43.435605a6.954198 6.954198 0 0 1-9.711121 0l-17.779341-17.475517c-74.898286-73.615473-196.315429-73.615473-271.213714 0l-19.039648 18.724571a6.954198 6.954198 0 0 1-9.722374 0l-44.189539-43.446857a13.345758 13.345758 0 0 1 0-19.107165l14.178462-13.953406z m480.154725 89.853186l39.339605 38.66444a13.345758 13.345758 0 0 1 0 19.107165L659.748571 710.588484a13.919648 13.919648 0 0 1-19.433494 0L514.430593 586.842022a3.488352 3.488352 0 0 0-4.861186 0L383.696176 710.588484a13.919648 13.919648 0 0 1-19.444747 0L186.885626 536.227165a13.345758 13.345758 0 0 1 0-19.107165l39.328352-38.66444a13.908396 13.908396 0 0 1 19.444747 0l125.884484 123.746462a3.488352 3.488352 0 0 0 4.861187 0L502.277626 478.466813a13.908396 13.908396 0 0 1 19.444748 0L647.595604 602.202022a3.488352 3.488352 0 0 0 4.849934 0L778.352527 478.466813a13.908396 13.908396 0 0 1 19.444748 0z" fill="#FFFFFF" p-id="4184"></path></svg>